<svg xmlns="http://www.w3.org/2000/svg" width="1020" height="328"><g font-family="helvetica" font-size="8pt"><a xmlns:xlink="http://www.w3.org/1999/xlink" xlink:href="http://www.biodalliance.org/"><text x="900" y="35" stroke-width="0" font-size="12pt" text-anchor="end" fill="blue">Graphics from Biodalliance 0.13.8</text></a><text x="300" y="35" stroke-width="0" font-size="12pt" text-anchor="start">22:30,477,527..30,563,648</text><clipPath id="featureClip"><rect x="200" y="50" width="800" height="100000"/></clipPath><g><g><g clip-path="url(#featureClip)" clip-rule="nonzero"><rect x="0" y="70" width="10000" height="80" fill="rgb(245,245,245)"/><g transform="translate(200, 70)"><g font-size="8pt"><rect x="-1091.7383681099377" y="8" width="185.7851162898632" height="3" fill="white" stroke="black"/><text x="-1091.7383681099377" y="28" fill="black" stroke="none">30,360,000</text><rect x="-905.9532518200745" y="8" width="185.7851162898632" height="3" fill="black" stroke="black"/><text x="-905.9532518200745" y="28" fill="black" stroke="none">30,380,000</text><rect x="-720.1681355302112" y="8" width="185.7851162898632" height="3" fill="white" stroke="black"/><text x="-720.1681355302112" y="28" fill="black" stroke="none">30,400,000</text><rect x="-534.3830192403481" y="8" width="185.7851162898632" height="3" fill="black" stroke="black"/><text x="-534.3830192403481" y="28" fill="black" stroke="none">30,420,000</text><rect x="-348.5979029504848" y="8" width="185.7851162898632" height="3" fill="white" stroke="black"/><text x="-348.5979029504848" y="28" fill="black" stroke="none">30,440,000</text><rect x="-162.8127866606216" y="8" width="185.7851162898632" height="3" fill="black" stroke="black"/><text x="-162.8127866606216" y="28" fill="black" stroke="none">30,460,000</text><rect x="22.972329629241585" y="8" width="185.7851162898632" height="3" fill="white" stroke="black"/><text x="22.972329629241585" y="28" fill="black" stroke="none">30,480,000</text><rect x="208.75744591910478" y="8" width="185.7851162898632" height="3" fill="black" stroke="black"/><text x="208.75744591910478" y="28" fill="black" stroke="none">30,500,000</text><rect x="394.542562208968" y="8" width="185.7851162898632" height="3" fill="white" stroke="black"/><text x="394.542562208968" y="28" fill="black" stroke="none">30,520,000</text><rect x="580.3276784988312" y="8" width="185.7851162898632" height="3" fill="black" stroke="black"/><text x="580.3276784988312" y="28" fill="black" stroke="none">30,540,000</text><rect x="766.1127947886944" y="8" width="185.7851162898632" height="3" fill="white" stroke="black"/><text x="766.1127947886944" y="28" fill="black" stroke="none">30,560,000</text><rect x="951.8979110785576" y="8" width="185.7851162898632" height="3" fill="black" stroke="black"/><text x="951.8979110785576" y="28" fill="black" stroke="none">30,580,000</text><rect x="1137.6830273684209" y="8" width="185.7851162898632" height="3" fill="white" stroke="black"/><text x="1137.6830273684209" y="28" fill="black" stroke="none">30,600,000</text><rect x="1323.468143658284" y="8" width="185.7851162898632" height="3" fill="black" stroke="black"/><text x="1323.468143658284" y="28" fill="black" stroke="none">30,620,000</text><rect x="1509.2532599481472" y="8" width="185.7851162898632" height="3" fill="white" stroke="black"/><text x="1509.2532599481472" y="28" fill="black" stroke="none">30,640,000</text><rect x="1695.0383762380104" y="8" width="185.7851162898632" height="3" fill="black" stroke="black"/><text x="1695.0383762380104" y="28" fill="black" stroke="none">30,660,000</text><rect x="1880.8234925278737" y="8" width="185.7851162898632" height="3" fill="white" stroke="black"/><text x="1880.8234925278737" y="28" fill="black" stroke="none">30,680,000</text><rect x="2066.6086088177367" y="8" width="185.7851162898632" height="3" fill="black" stroke="black"/><text x="2066.6086088177367" y="28" fill="black" stroke="none">30,700,000</text><rect x="2252.3937251076" y="8" width="185.7851162898632" height="3" fill="white" stroke="black"/><text x="2252.3937251076" y="28" fill="black" stroke="none">30,720,000</text><rect x="2438.178841397463" y="8" width="185.7851162898632" height="3" fill="black" stroke="black"/><text x="2438.178841397463" y="28" fill="black" stroke="none">30,740,000</text><rect x="2623.9639576873265" y="8" width="185.7851162898632" height="3" fill="white" stroke="black"/><text x="2623.9639576873265" y="28" fill="black" stroke="none">30,760,000</text></g></g></g><g><text x="188" y="114" font-size="10pt" text-anchor="end">Genome</text></g></g><g><g clip-path="url(#featureClip)" clip-rule="nonzero"><rect x="0" y="150" width="10000" height="108" fill="white"/><g transform="translate(200, 153)"><g><g><rect x="-1842.8304362465965" y="0" width="1.904297441971039" height="10" stroke="black" stroke-width="0.5" fill="white"/><rect x="-1156.5309274160275" y="0" width="1" height="10" stroke="black" stroke-width="0.5" fill="white"/><rect x="-1027.0387013619927" y="0" width="1" height="10" stroke="black" stroke-width="0.5" fill="white"/><rect x="-957.6851174509868" y="0" width="1" height="10" stroke="black" stroke-width="0.5" fill="white"/><rect x="-953.0962250786272" y="0" width="1.0868429302956883" height="10" stroke="black" stroke-width="0.5" fill="white"/><rect x="-864.4395675851044" y="0" width="1" height="10" stroke="black" stroke-width="0.5" fill="white"/><rect x="-836.3488580020772" y="0" width="1.5513057210204124" height="10" stroke="black" stroke-width="0.5" fill="white"/><rect x="-768.9367285563003" y="0" width="1" height="10" stroke="black" stroke-width="0.5" fill="white"/><rect x="-730.674283856403" y="0" width="1.0589751628522208" height="10" stroke="black" stroke-width="0.5" fill="white"/><rect x="-721.2456892046924" y="0" width="1.179735488440656" height="10" stroke="black" stroke-width="0.5" fill="white"/><rect x="-691.3435747378389" y="0" width="1.913586697785604" height="10" stroke="black" stroke-width="0.5" fill="white"/><rect x="-684.0329304118328" y="0" width="1.226181767513026" height="10" stroke="black" stroke-width="0.5" fill="white"/><rect x="-673.656831667044" y="0" width="1.0403966512233183" height="10" stroke="black" stroke-width="0.5" fill="white"/><rect x="-642.5378246884919" y="0" width="1.82069413964075" height="10" stroke="black" stroke-width="0.5" fill="white"/><rect x="-633.3600399437727" y="0" width="1.7278015814957826" height="10" stroke="black" stroke-width="0.5" fill="white"/><rect x="-603.8945205002003" y="0" width="1.5884627442783312" height="10" stroke="black" stroke-width="0.5" fill="white"/><rect x="-593.1654300344608" y="0" width="3.6228097676523703" height="10" stroke="black" stroke-width="0.5" fill="white"/><rect x="-576.4726373358166" y="0" width="13.051404419362939" height="10" stroke="black" stroke-width="0.5" fill="white"/><rect x="-552.7943242646735" y="0" width="1.0311073954087533" height="10" stroke="black" stroke-width="0.5" fill="white"/><rect x="-548.7627872411834" y="0" width="2.1829751164059417" height="10" stroke="black" stroke-width="0.5" fill="white"/><rect x="-539.5292669615773" y="0" width="1" height="10" stroke="black" stroke-width="0.5" fill="white"/><rect x="-519.3437140766836" y="0" width="48.64783270050066" height="10" stroke="black" stroke-width="0.5" fill="white"/><rect x="-1026.2584038735754" y="0" width="1" height="10" stroke="black" stroke-width="0.5" fill="red"/><rect x="-957.6851174509868" y="0" width="1" height="10" stroke="black" stroke-width="0.5" fill="red"/><rect x="-953.0962250786272" y="0" width="1.0868429302956883" height="10" stroke="black" stroke-width="0.5" fill="red"/><rect x="-864.4395675851044" y="0" width="1" height="10" stroke="black" stroke-width="0.5" fill="red"/><rect x="-836.3488580020772" y="0" width="1.5513057210204124" height="10" stroke="black" stroke-width="0.5" fill="red"/><rect x="-768.9367285563003" y="0" width="1" height="10" stroke="black" stroke-width="0.5" fill="red"/><rect x="-730.674283856403" y="0" width="1.0589751628522208" height="10" stroke="black" stroke-width="0.5" fill="red"/><rect x="-691.3435747378389" y="0" width="1.913586697785604" height="10" stroke="black" stroke-width="0.5" fill="red"/><rect x="-684.0329304118328" y="0" width="1.226181767513026" height="10" stroke="black" stroke-width="0.5" fill="red"/><rect x="-673.656831667044" y="0" width="1.0403966512233183" height="10" stroke="black" stroke-width="0.5" fill="red"/><rect x="-642.5378246884919" y="0" width="1.82069413964075" height="10" stroke="black" stroke-width="0.5" fill="red"/><rect x="-633.3600399437727" y="0" width="1.7278015814957826" height="10" stroke="black" stroke-width="0.5" fill="red"/><rect x="-603.8945205002003" y="0" width="1.5884627442783312" height="10" stroke="black" stroke-width="0.5" fill="red"/><rect x="-590.8988516157244" y="0" width="1.356231348916026" height="10" stroke="black" stroke-width="0.5" fill="red"/><rect x="-576.4726373358166" y="0" width="13.051404419362939" height="10" stroke="black" stroke-width="0.5" fill="red"/><rect x="-552.7943242646735" y="0" width="1.0311073954087533" height="10" stroke="black" stroke-width="0.5" fill="red"/><rect x="-547.4065558922674" y="0" width="1" height="10" stroke="black" stroke-width="0.5" fill="red"/><rect x="-539.5292669615773" y="0" width="1" height="10" stroke="black" stroke-width="0.5" fill="red"/><rect x="-519.3437140766836" y="0" width="1.5977520000927825" height="10" stroke="black" stroke-width="0.5" fill="red"/><path d="M -1840.9261388046255 5 L -1156.5309274160275 5 M -1500.7285331103265 2 L -1496.7285331103265 5 L -1500.7285331103265 8 M -1155.5309274160275 5 L -1027.0387013619927 5 M -1093.28481438901 2 L -1089.28481438901 5 L -1093.28481438901 8 M -1025.2584038735754 5 L -957.6851174509868 5 M -993.4717606622811 2 L -989.4717606622811 5 L -993.4717606622811 8 M -956.6851174509868 5 L -953.0962250786272 5 M -952.0093821483315 5 L -864.4395675851044 5 M -910.224474866718 2 L -906.224474866718 5 L -910.224474866718 8 M -863.4395675851044 5 L -836.3488580020772 5 M -851.8942127935909 2 L -847.8942127935909 5 L -851.8942127935909 8 M -834.7975522810568 5 L -768.9367285563003 5 M -803.8671404186786 2 L -799.8671404186786 5 L -803.8671404186786 8 M -767.9367285563003 5 L -730.674283856403 5 M -751.3055062063517 2 L -747.3055062063517 5 L -751.3055062063517 8 M -729.6153086935508 5 L -721.2456892046924 5 M -727.4304989491216 2 L -723.4304989491216 5 L -727.4304989491216 8 M -720.0659537162518 5 L -691.3435747378389 5 M -707.7047642270454 2 L -703.7047642270454 5 L -707.7047642270454 8 M -689.4299880400533 5 L -684.0329304118328 5 M -688.7314592259431 2 L -684.7314592259431 5 L -688.7314592259431 8 M -682.8067486443198 5 L -673.656831667044 5 M -680.2317901556819 2 L -676.2317901556819 5 L -680.2317901556819 8 M -672.6164350158207 5 L -642.5378246884919 5 M -659.5771298521563 2 L -655.5771298521563 5 L -659.5771298521563 8 M -640.7171305488512 5 L -633.3600399437727 5 M -639.0385852463119 2 L -635.0385852463119 5 L -639.0385852463119 8 M -631.6322383622769 5 L -603.8945205002003 5 M -619.7633794312386 2 L -615.7633794312386 5 L -619.7633794312386 8 M -602.306057755922 5 L -593.1654300344608 5 M -599.7357438951914 2 L -595.7357438951914 5 L -599.7357438951914 8 M -589.5426202668084 5 L -576.4726373358166 5 M -585.0076288013124 2 L -581.0076288013124 5 L -585.0076288013124 8 M -563.4212329164536 5 L -552.7943242646735 5 M -560.1077785905636 2 L -556.1077785905636 5 L -560.1077785905636 8 M -551.7632168692647 5 L -548.7627872411834 5 M -546.4065558922674 5 L -539.5292669615773 5 M -544.9679114269223 2 L -540.9679114269223 5 L -544.9679114269223 8 M -538.5292669615773 5 L -519.3437140766836 5 M -530.9364905191304 2 L -526.9364905191304 5 L -530.9364905191304 8" fill="none" stroke="black" stroke-width="0.5"/></g><text y="25" x="-1842.8304362465965">&gt;MTMR3</text></g><g><g><rect x="-327.5577385306578" y="0" width="8.527536837704702" height="10" stroke="blue" stroke-width="0.5" fill="white"/></g><text y="25" x="-327.5577385306578">&lt;CNN2P1</text></g><g><g><rect x="-12.67054493096867" y="0" width="2.9539833490088245" height="10" stroke="black" stroke-width="0.5" fill="white"/><rect x="-4.895437814237895" y="0" width="2.3037354419943035" height="10" stroke="black" stroke-width="0.5" fill="white"/><rect x="114.98240847179633" y="0" width="1" height="10" stroke="black" stroke-width="0.5" fill="white"/><rect x="160.83417517213456" y="0" width="1.3190743256580504" height="10" stroke="black" stroke-width="0.5" fill="white"/><rect x="203.4254130815857" y="0" width="1" height="10" stroke="black" stroke-width="0.5" fill="white"/><rect x="212.38025568675712" y="0" width="1.6441982791652947" height="10" stroke="black" stroke-width="0.5" fill="white"/><rect x="281.07430243493405" y="0" width="1" height="10" stroke="black" stroke-width="0.5" fill="white"/><rect x="287.5767815050792" y="0" width="1" height="10" stroke="black" stroke-width="0.5" fill="white"/><rect x="347.8083162062529" y="0" width="1" height="10" stroke="black" stroke-width="0.5" fill="white"/><rect x="372.44342262628874" y="0" width="1.467702418689953" height="10" stroke="black" stroke-width="0.5" fill="white"/><rect x="375.5274555567005" y="0" width="2.3316032094377874" height="10" stroke="black" stroke-width="0.5" fill="white"/><rect x="878.066905864966" y="0" width="9.410016140081552" height="10" stroke="black" stroke-width="0.5" fill="white"/><rect x="115.32611093693258" y="0" width="1" height="10" stroke="black" stroke-width="0.5" fill="red"/><rect x="160.83417517213456" y="0" width="1.3190743256580504" height="10" stroke="black" stroke-width="0.5" fill="red"/><rect x="203.4254130815857" y="0" width="1" height="10" stroke="black" stroke-width="0.5" fill="red"/><rect x="212.38025568675712" y="0" width="1" height="10" stroke="black" stroke-width="0.5" fill="red"/><rect x="281.07430243493405" y="0" width="1" height="10" stroke="black" stroke-width="0.5" fill="red"/><rect x="287.5767815050792" y="0" width="1" height="10" stroke="black" stroke-width="0.5" fill="red"/><rect x="347.8083162062529" y="0" width="1" height="10" stroke="black" stroke-width="0.5" fill="red"/><rect x="372.44342262628874" y="0" width="1.467702418689953" height="10" stroke="black" stroke-width="0.5" fill="red"/><rect x="375.5274555567005" y="0" width="2.3316032094377874" height="10" stroke="black" stroke-width="0.5" fill="red"/><rect x="878.066905864966" y="0" width="1" height="10" stroke="black" stroke-width="0.5" fill="red"/><path d="M -9.716561581959846 5 L -4.895437814237895 5 M -9.305999698098871 2 L -5.305999698098871 5 L -9.305999698098871 8 M -2.5917023722435917 5 L 114.98240847179633 5 M 54.19535304977637 2 L 58.19535304977637 5 L 54.19535304977637 8 M 116.32611093693258 5 L 160.83417517213456 5 M 136.58014305453358 2 L 140.58014305453358 5 L 136.58014305453358 8 M 162.15324949779261 5 L 203.4254130815857 5 M 180.78933128968916 2 L 184.78933128968916 5 L 180.78933128968916 8 M 204.4254130815857 5 L 212.38025568675712 5 M 206.4028343841714 2 L 210.4028343841714 5 L 206.4028343841714 8 M 214.02445396592242 5 L 281.07430243493405 5 M 245.54937820042824 2 L 249.54937820042824 5 L 245.54937820042824 8 M 282.07430243493405 5 L 287.5767815050792 5 M 282.8255419700066 2 L 286.8255419700066 5 L 282.8255419700066 8 M 288.5767815050792 5 L 347.8083162062529 5 M 316.1925488556661 2 L 320.1925488556661 5 L 316.1925488556661 8 M 348.8083162062529 5 L 372.44342262628874 5 M 358.6258694162708 2 L 362.6258694162708 5 L 358.6258694162708 8 M 373.9111250449787 5 L 375.5274555567005 5 M 377.8590587661383 5 L 878.066905864966 5 M 625.9629823155522 2 L 629.9629823155522 5 L 625.9629823155522 8" fill="none" stroke="black" stroke-width="0.5"/></g><text y="25" x="-12.67054493096867">&gt;HORMAD2</text></g><g><g><rect x="957.7780100091318" y="0" width="1.2819173024000747" height="10" stroke="black" stroke-width="0.5" fill="white"/><rect x="1027.345246803871" y="0" width="1" height="10" stroke="black" stroke-width="0.5" fill="white"/><rect x="1165.8944972770366" y="0" width="1" height="10" stroke="black" stroke-width="0.5" fill="white"/><path d="M 959.0599273115319 5 L 1027.345246803871 5 M 995.2025870577015 2 L 991.2025870577015 5 L 995.2025870577015 8 M 1028.345246803871 5 L 1165.8944972770366 5 M 1099.1198720404539 2 L 1095.1198720404539 5 L 1099.1198720404539 8" fill="none" stroke="black" stroke-width="0.5"/></g><text y="25" x="957.7780100091318">&lt;RP3-438O4.4</text></g><g><g><rect x="1464.5069146897335" y="0" width="1" height="10" stroke="black" stroke-width="0.5" fill="white"/><rect x="1469.1236748295369" y="0" width="1.216892511698461" height="10" stroke="black" stroke-width="0.5" fill="white"/><rect x="1471.501724318047" y="0" width="5.499239442179942" height="10" stroke="black" stroke-width="0.5" fill="white"/><path d="M 1465.5069146897335 5 L 1469.1236748295369 5 M 1470.3405673412353 5 L 1471.501724318047 5" fill="none" stroke="black" stroke-width="0.5"/></g><text y="25" x="1464.5069146897335">&gt;RP1-102K2.6</text></g><g><g><rect x="1684.0584758652794" y="0" width="15.197222512510962" height="10" stroke="black" stroke-width="0.5" fill="white"/><rect x="1704.2440287501731" y="0" width="1.3283635814725585" height="10" stroke="black" stroke-width="0.5" fill="white"/><rect x="1709.4181442388458" y="0" width="2.415206511768247" height="10" stroke="black" stroke-width="0.5" fill="white"/><rect x="1720.630276006939" y="0" width="1" height="10" stroke="black" stroke-width="0.5" fill="white"/><rect x="1693.8493514937552" y="0" width="5.406346884035202" height="10" stroke="black" stroke-width="0.5" fill="red"/><rect x="1704.2440287501731" y="0" width="1.3283635814725585" height="10" stroke="black" stroke-width="0.5" fill="red"/><rect x="1720.630276006939" y="0" width="1" height="10" stroke="black" stroke-width="0.5" fill="red"/><path d="M 1699.2556983777904 5 L 1704.2440287501731 5 M 1703.7498635639818 2 L 1699.7498635639818 5 L 1703.7498635639818 8 M 1705.5723923316457 5 L 1709.4181442388458 5 M 1711.833350750614 5 L 1720.630276006939 5 M 1718.2318133787767 2 L 1714.2318133787767 5 L 1718.2318133787767 8" fill="none" stroke="black" stroke-width="0.5"/></g><text y="25" x="1684.0584758652794">&lt;OSM</text></g></g><g transform="translate(200, 189)"><g><g><rect x="-676.220666271844" y="0" width="4.226611395594318" height="10" stroke="black" stroke-width="0.5" fill="white"/><rect x="-584.4892651037242" y="0" width="1.0496859070377695" height="10" stroke="black" stroke-width="0.5" fill="white"/><rect x="-384.2129097432516" y="0" width="1" height="10" stroke="black" stroke-width="0.5" fill="white"/><rect x="-315.02653243690656" y="0" width="2.6660164187595683" height="10" stroke="black" stroke-width="0.5" fill="white"/><rect x="-288.68220294700393" y="0" width="1.1983140000696153" height="10" stroke="black" stroke-width="0.5" fill="white"/><rect x="-13.097850698435355" y="0" width="3.279107302516085" height="10" stroke="black" stroke-width="0.5" fill="white"/><path d="M -671.9940548762497 5 L -584.4892651037242 5 M -626.2416599899869 2 L -630.2416599899869 5 L -626.2416599899869 8 M -583.4395791966864 5 L -384.2129097432516 5 M -481.82624446996897 2 L -485.82624446996897 5 L -481.82624446996897 8 M -383.2129097432516 5 L -315.02653243690656 5 M -347.1197210900791 2 L -351.1197210900791 5 L -347.1197210900791 8 M -312.360516018147 5 L -288.68220294700393 5 M -298.52135948257546 2 L -302.52135948257546 5 L -298.52135948257546 8 M -287.4838889469343 5 L -13.097850698435355 5 M -148.29086982268484 2 L -152.29086982268484 5 L -148.29086982268484 8" fill="none" stroke="black" stroke-width="0.5"/></g><text y="25" x="-676.220666271844">&lt;CTA-85E5.10</text></g><g><g><rect x="218.81770996620088" y="0" width="2.926115581565341" height="10" stroke="blue" stroke-width="0.5" fill="white"/></g><text y="25" x="218.81770996620088">&lt;CTA-85E5.7</text></g><g><g><rect x="512.1631193320804" y="0" width="6.632528651548114" height="10" stroke="blue" stroke-width="0.5" fill="white"/><rect x="520.839284262817" y="0" width="1" height="10" stroke="blue" stroke-width="0.5" fill="white"/><path d="M 518.7956479836286 5 L 520.839284262817 5" fill="none" stroke="black" stroke-width="0.5"/></g><text y="25" x="512.1631193320804">&lt;CTA-85E5.6</text></g><g><g><rect x="1476.1463522252936" y="0" width="33.580659769392696" height="10" stroke="black" stroke-width="0.5" fill="white"/><rect x="1516.16446627413" y="0" width="1.6627767907943962" height="10" stroke="black" stroke-width="0.5" fill="white"/><rect x="1534.018415949586" y="0" width="1.6256197675363637" height="10" stroke="black" stroke-width="0.5" fill="white"/><rect x="1505.9091278549297" y="0" width="3.817884139756643" height="10" stroke="black" stroke-width="0.5" fill="red"/><rect x="1516.16446627413" y="0" width="1.6627767907943962" height="10" stroke="black" stroke-width="0.5" fill="red"/><rect x="1534.018415949586" y="0" width="1" height="10" stroke="black" stroke-width="0.5" fill="red"/><path d="M 1509.7270119946863 5 L 1516.16446627413 5 M 1514.945739134408 2 L 1510.945739134408 5 L 1514.945739134408 8 M 1517.8272430649245 5 L 1534.018415949586 5 M 1527.9228295072553 2 L 1523.9228295072553 5 L 1527.9228295072553 8" fill="none" stroke="black" stroke-width="0.5"/></g><text y="25" x="1476.1463522252936">&lt;LIF</text></g></g><g transform="translate(200, 225)"><g><g><rect x="1527.6831434841017" y="0" width="1" height="10" stroke="black" stroke-width="0.5" fill="white"/><rect x="1529.6617549725886" y="0" width="6.60466088410476" height="10" stroke="black" stroke-width="0.5" fill="white"/><rect x="1527.6831434841017" y="0" width="1" height="10" stroke="black" stroke-width="0.5" fill="red"/><rect x="1529.6617549725886" y="0" width="6.60466088410476" height="10" stroke="black" stroke-width="0.5" fill="red"/><path d="M 1528.6831434841017 5 L 1529.6617549725886 5" fill="none" stroke="black" stroke-width="0.5"/></g><text y="25" x="1527.6831434841017">&gt;MGC20647</text></g></g></g><g><text x="188" y="208" font-size="10pt" text-anchor="end">Genes</text></g></g><g><g clip-path="url(#featureClip)" clip-rule="nonzero"><rect x="0" y="258" width="10000" height="20" fill="rgb(245,245,245)"/><g transform="translate(200, 261)"><rect x="-931.9538788448408" y="0" width="3.715702325797224" height="8" stroke="black" stroke-width="0.5" fill="rgb(0,176,80)"/><rect x="-928.2381765190436" y="0" width="1.857851162898669" height="8" stroke="black" stroke-width="0.5" fill="rgb(0,176,80)"/><rect x="-926.3803253561449" y="0" width="11.147106977391786" height="8" stroke="black" stroke-width="0.5" fill="rgb(0,176,80)"/><rect x="-915.2332183787531" y="0" width="5.573553488695893" height="8" stroke="black" stroke-width="0.5" fill="rgb(0,176,80)"/><rect x="-909.6596648900572" y="0" width="29.725618606378134" height="8" stroke="black" stroke-width="0.5" fill="rgb(194,214,154)"/><rect x="-879.9340462836791" y="0" width="3.715702325797224" height="8" stroke="black" stroke-width="0.5" fill="rgb(255,252,4)"/><rect x="-876.2183439578819" y="0" width="1.857851162898669" height="8" stroke="black" stroke-width="0.5" fill="rgb(255,252,4)"/><rect x="-874.3604927949832" y="0" width="1.857851162898669" height="8" stroke="black" stroke-width="0.5" fill="rgb(255,252,4)"/><rect x="-872.5026416320845" y="0" width="1.8578511628985552" height="8" stroke="black" stroke-width="0.5" fill="rgb(0,176,80)"/><rect x="-870.644790469186" y="0" width="3.715702325797338" height="8" stroke="black" stroke-width="0.5" fill="rgb(0,176,80)"/><rect x="-866.9290881433886" y="0" width="14.86280930318901" height="8" stroke="black" stroke-width="0.5" fill="rgb(0,176,80)"/><rect x="-852.0662788401996" y="0" width="9.289255814493231" height="8" stroke="black" stroke-width="0.5" fill="rgb(0,176,80)"/><rect x="-842.7770230257064" y="0" width="5.573553488695893" height="8" stroke="black" stroke-width="0.5" fill="rgb(0,176,80)"/><rect x="-837.2034695370105" y="0" width="18.578511628986234" height="8" stroke="black" stroke-width="0.5" fill="rgb(0,176,80)"/><rect x="-818.6249579080243" y="0" width="3.715702325797338" height="8" stroke="black" stroke-width="0.5" fill="rgb(0,176,80)"/><rect x="-814.9092555822269" y="0" width="5.573553488695893" height="8" stroke="black" stroke-width="0.5" fill="rgb(0,176,80)"/><rect x="-809.335702093531" y="0" width="22.294213954783572" height="8" stroke="black" stroke-width="0.5" fill="rgb(0,176,80)"/><rect x="-787.0414881387475" y="0" width="1.857851162898669" height="8" stroke="black" stroke-width="0.5" fill="rgb(0,176,80)"/><rect x="-785.1836369758488" y="0" width="14.86280930318901" height="8" stroke="black" stroke-width="0.5" fill="rgb(194,214,154)"/><rect x="-770.3208276726598" y="0" width="1.857851162898669" height="8" stroke="black" stroke-width="0.5" fill="rgb(10,190,254)"/><rect x="-768.4629765097611" y="0" width="1.8578511628985552" height="8" stroke="black" stroke-width="0.5" fill="rgb(10,190,254)"/><rect x="-766.6051253468626" y="0" width="3.715702325797338" height="8" stroke="black" stroke-width="0.5" fill="rgb(0,176,80)"/><rect x="-762.8894230210652" y="0" width="13.004958140290341" height="8" stroke="black" stroke-width="0.5" fill="rgb(0,176,80)"/><rect x="-749.8844648807749" y="0" width="18.578511628986348" height="8" stroke="black" stroke-width="0.5" fill="rgb(0,176,80)"/><rect x="-731.3059532517885" y="0" width="7.431404651594562" height="8" stroke="black" stroke-width="0.5" fill="rgb(0,176,80)"/><rect x="-723.874548600194" y="0" width="13.004958140290455" height="8" stroke="black" stroke-width="0.5" fill="rgb(194,214,154)"/><rect x="-710.8695904599035" y="0" width="1.8578511628985552" height="8" stroke="black" stroke-width="0.5" fill="rgb(10,190,254)"/><rect x="-709.011739297005" y="0" width="3.715702325797338" height="8" stroke="black" stroke-width="0.5" fill="rgb(10,190,254)"/><rect x="-705.2960369712076" y="0" width="1.8578511628985552" height="8" stroke="black" stroke-width="0.5" fill="rgb(10,190,254)"/><rect x="-703.4381858083091" y="0" width="5.573553488695893" height="8" stroke="black" stroke-width="0.5" fill="rgb(0,176,80)"/><rect x="-697.8646323196132" y="0" width="20.436362791885017" height="8" stroke="black" stroke-width="0.5" fill="rgb(0,176,80)"/><rect x="-677.4282695277282" y="0" width="5.573553488695893" height="8" stroke="black" stroke-width="0.5" fill="rgb(0,176,80)"/><rect x="-671.8547160390323" y="0" width="3.715702325797224" height="8" stroke="black" stroke-width="0.5" fill="rgb(0,176,80)"/><rect x="-668.139013713235" y="0" width="3.715702325797224" height="8" stroke="black" stroke-width="0.5" fill="rgb(0,176,80)"/><rect x="-664.4233113874378" y="0" width="5.573553488695893" height="8" stroke="black" stroke-width="0.5" fill="rgb(0,176,80)"/><rect x="-658.8497578987419" y="0" width="14.862809303189124" height="8" stroke="black" stroke-width="0.5" fill="rgb(0,176,80)"/><rect x="-643.9869485955528" y="0" width="29.725618606378134" height="8" stroke="black" stroke-width="0.5" fill="rgb(0,176,80)"/><rect x="-614.2613299891747" y="0" width="3.715702325797224" height="8" stroke="black" stroke-width="0.5" fill="rgb(0,176,80)"/><rect x="-610.5456276633774" y="0" width="18.578511628986348" height="8" stroke="black" stroke-width="0.5" fill="rgb(0,176,80)"/><rect x="-591.9671160343911" y="0" width="3.715702325797224" height="8" stroke="black" stroke-width="0.5" fill="rgb(0,176,80)"/><rect x="-588.2514137085939" y="0" width="5.573553488695893" height="8" stroke="black" stroke-width="0.5" fill="rgb(0,176,80)"/><rect x="-582.677860219898" y="0" width="3.715702325797224" height="8" stroke="black" stroke-width="0.5" fill="rgb(0,176,80)"/><rect x="-578.9621578941008" y="0" width="9.289255814493231" height="8" stroke="black" stroke-width="0.5" fill="rgb(0,176,80)"/><rect x="-569.6729020796075" y="0" width="5.573553488695893" height="8" stroke="black" stroke-width="0.5" fill="rgb(0,176,80)"/><rect x="-564.0993485909116" y="0" width="14.86280930318901" height="8" stroke="black" stroke-width="0.5" fill="rgb(0,176,80)"/><rect x="-549.2365392877226" y="0" width="3.715702325797338" height="8" stroke="black" stroke-width="0.5" fill="rgb(0,176,80)"/><rect x="-545.5208369619253" y="0" width="1.8578511628985552" height="8" stroke="black" stroke-width="0.5" fill="rgb(0,176,80)"/><rect x="-543.6629857990267" y="0" width="7.431404651594562" height="8" stroke="black" stroke-width="0.5" fill="rgb(0,176,80)"/><rect x="-536.2315811474322" y="0" width="3.715702325797224" height="8" stroke="black" stroke-width="0.5" fill="rgb(0,176,80)"/><rect x="-532.5158788216349" y="0" width="3.715702325797338" height="8" stroke="black" stroke-width="0.5" fill="rgb(0,176,80)"/><rect x="-528.8001764958376" y="0" width="20.436362791884903" height="8" stroke="black" stroke-width="0.5" fill="rgb(0,176,80)"/><rect x="-508.3638137039527" y="0" width="7.431404651594562" height="8" stroke="black" stroke-width="0.5" fill="rgb(0,176,80)"/><rect x="-500.93240905235814" y="0" width="3.715702325797224" height="8" stroke="black" stroke-width="0.5" fill="rgb(0,176,80)"/><rect x="-497.2167067265609" y="0" width="1.857851162898669" height="8" stroke="black" stroke-width="0.5" fill="rgb(0,176,80)"/><rect x="-495.35885556366225" y="0" width="5.573553488695893" height="8" stroke="black" stroke-width="0.5" fill="rgb(0,176,80)"/><rect x="-489.78530207496635" y="0" width="1.857851162898612" height="8" stroke="black" stroke-width="0.5" fill="rgb(0,176,80)"/><rect x="-487.92745091206774" y="0" width="3.715702325797281" height="8" stroke="black" stroke-width="0.5" fill="rgb(0,176,80)"/><rect x="-484.21174858627046" y="0" width="7.431404651594505" height="8" stroke="black" stroke-width="0.5" fill="rgb(0,176,80)"/><rect x="-476.78034393467595" y="0" width="26.009916280580853" height="8" stroke="black" stroke-width="0.5" fill="rgb(194,214,154)"/><rect x="-450.7704276540951" y="0" width="16.72066046608768" height="8" stroke="black" stroke-width="0.5" fill="rgb(0,176,80)"/><rect x="-434.0497671880074" y="0" width="11.147106977391786" height="8" stroke="black" stroke-width="0.5" fill="rgb(194,214,154)"/><rect x="-422.90266021061564" y="0" width="7.431404651594562" height="8" stroke="black" stroke-width="0.5" fill="rgb(0,176,80)"/><rect x="-415.4712555590211" y="0" width="91.03470698203296" height="8" stroke="black" stroke-width="0.5" fill="rgb(194,214,154)"/><rect x="-324.4365485769881" y="0" width="1.857851162898612" height="8" stroke="black" stroke-width="0.5" fill="rgb(0,176,80)"/><rect x="-322.5786974140895" y="0" width="1.857851162898669" height="8" stroke="black" stroke-width="0.5" fill="rgb(255,252,4)"/><rect x="-320.72084625119084" y="0" width="3.715702325797224" height="8" stroke="black" stroke-width="0.5" fill="rgb(194,214,154)"/><rect x="-317.0051439253936" y="0" width="1.857851162898669" height="8" stroke="black" stroke-width="0.5" fill="rgb(10,190,254)"/><rect x="-315.14729276249494" y="0" width="1.857851162898612" height="8" stroke="black" stroke-width="0.5" fill="rgb(10,190,254)"/><rect x="-313.28944159959633" y="0" width="167.2066046608769" height="8" stroke="black" stroke-width="0.5" fill="rgb(225,225,225)"/><rect x="-146.08283693871942" y="0" width="5.573553488695893" height="8" stroke="black" stroke-width="0.5" fill="rgb(255,252,4)"/><rect x="-140.50928345002353" y="0" width="76.1718976788439" height="8" stroke="black" stroke-width="0.5" fill="rgb(194,214,154)"/><rect x="-64.33738577117963" y="0" width="5.573553488695893" height="8" stroke="black" stroke-width="0.5" fill="rgb(255,252,4)"/><rect x="-58.76383228248373" y="0" width="1.8578511628986334" height="8" stroke="black" stroke-width="0.5" fill="rgb(255,252,4)"/><rect x="-56.9059811195851" y="0" width="14.86280930318906" height="8" stroke="black" stroke-width="0.5" fill="rgb(194,214,154)"/><rect x="-42.04317181639604" y="0" width="9.28925581449316" height="8" stroke="black" stroke-width="0.5" fill="rgb(255,252,4)"/><rect x="-32.75391600190288" y="0" width="5.573553488695893" height="8" stroke="black" stroke-width="0.5" fill="rgb(250,202,0)"/><rect x="-27.180362513206987" y="0" width="7.43140465159453" height="8" stroke="black" stroke-width="0.5" fill="rgb(250,202,0)"/><rect x="-19.748957861612457" y="0" width="13.004958140290423" height="8" stroke="black" stroke-width="0.5" fill="rgb(255,105,105)"/><rect x="-6.743999721322035" y="0" width="74.3140465159453" height="8" stroke="black" stroke-width="0.5" fill="rgb(194,214,154)"/><rect x="67.57004679462325" y="0" width="3.7157023257972526" height="8" stroke="black" stroke-width="0.5" fill="rgb(10,190,254)"/><rect x="71.2857491204205" y="0" width="1.8578511628986405" height="8" stroke="black" stroke-width="0.5" fill="rgb(10,190,254)"/><rect x="73.14360028331915" y="0" width="176.49586047537002" height="8" stroke="black" stroke-width="0.5" fill="rgb(225,225,225)"/><rect x="249.63946075868918" y="0" width="7.431404651594534" height="8" stroke="black" stroke-width="0.5" fill="rgb(10,190,254)"/><rect x="257.0708654102837" y="0" width="286.1090790863894" height="8" stroke="black" stroke-width="0.5" fill="rgb(225,225,225)"/><rect x="543.1799444966731" y="0" width="1.8578511628985552" height="8" stroke="black" stroke-width="0.5" fill="rgb(127,127,127)"/><rect x="545.0377956595717" y="0" width="31.583469769276803" height="8" stroke="black" stroke-width="0.5" fill="rgb(127,127,127)"/><rect x="576.6212654288485" y="0" width="3.715702325797224" height="8" stroke="black" stroke-width="0.5" fill="rgb(127,127,127)"/><rect x="580.3369677546457" y="0" width="3.715702325797224" height="8" stroke="black" stroke-width="0.5" fill="rgb(127,127,127)"/><rect x="584.0526700804429" y="0" width="5.573553488695893" height="8" stroke="black" stroke-width="0.5" fill="rgb(127,127,127)"/><rect x="589.6262235691388" y="0" width="52.01983256116171" height="8" stroke="black" stroke-width="0.5" fill="rgb(127,127,127)"/><rect x="641.6460561303005" y="0" width="3.715702325797338" height="8" stroke="black" stroke-width="0.5" fill="rgb(127,127,127)"/><rect x="645.3617584560978" y="0" width="55.73553488695893" height="8" stroke="black" stroke-width="0.5" fill="rgb(127,127,127)"/><rect x="701.0972933430568" y="0" width="3.715702325797224" height="8" stroke="black" stroke-width="0.5" fill="rgb(127,127,127)"/><rect x="704.812995668854" y="0" width="87.31900465623573" height="8" stroke="black" stroke-width="0.5" fill="rgb(127,127,127)"/><rect x="792.1320003250897" y="0" width="5.573553488695893" height="8" stroke="black" stroke-width="0.5" fill="rgb(127,127,127)"/><rect x="797.7055538137856" y="0" width="11.147106977391786" height="8" stroke="black" stroke-width="0.5" fill="rgb(127,127,127)"/><rect x="808.8526607911774" y="0" width="5.573553488695893" height="8" stroke="black" stroke-width="0.5" fill="rgb(127,127,127)"/><rect x="814.4262142798733" y="0" width="18.578511628986348" height="8" stroke="black" stroke-width="0.5" fill="rgb(127,127,127)"/><rect x="833.0047259088597" y="0" width="1.857851162898669" height="8" stroke="black" stroke-width="0.5" fill="rgb(127,127,127)"/><rect x="834.8625770717583" y="0" width="16.72066046608768" height="8" stroke="black" stroke-width="0.5" fill="rgb(127,127,127)"/><rect x="851.583237537846" y="0" width="1.8578511628985552" height="8" stroke="black" stroke-width="0.5" fill="rgb(127,127,127)"/><rect x="853.4410887007446" y="0" width="22.294213954783572" height="8" stroke="black" stroke-width="0.5" fill="rgb(127,127,127)"/><rect x="875.7353026555281" y="0" width="1.857851162898669" height="8" stroke="black" stroke-width="0.5" fill="rgb(127,127,127)"/><rect x="877.5931538184268" y="0" width="16.72066046608768" height="8" stroke="black" stroke-width="0.5" fill="rgb(127,127,127)"/><rect x="894.3138142845145" y="0" width="3.715702325797338" height="8" stroke="black" stroke-width="0.5" fill="rgb(255,252,4)"/><rect x="898.0295166103118" y="0" width="22.294213954783572" height="8" stroke="black" stroke-width="0.5" fill="rgb(127,127,127)"/><rect x="920.3237305650954" y="0" width="1.8578511628985552" height="8" stroke="black" stroke-width="0.5" fill="rgb(127,127,127)"/><rect x="922.181581727994" y="0" width="9.289255814493231" height="8" stroke="black" stroke-width="0.5" fill="rgb(225,225,225)"/><rect x="931.4708375424872" y="0" width="96.60826047072885" height="8" stroke="black" stroke-width="0.5" fill="rgb(194,214,154)"/><rect x="1028.079098013216" y="0" width="3.715702325797338" height="8" stroke="black" stroke-width="0.5" fill="rgb(255,252,4)"/><rect x="1031.7948003390134" y="0" width="1.8578511628984415" height="8" stroke="black" stroke-width="0.5" fill="rgb(255,252,4)"/><rect x="1033.6526515019118" y="0" width="9.289255814493345" height="8" stroke="black" stroke-width="0.5" fill="rgb(255,252,4)"/><rect x="1042.9419073164051" y="0" width="14.862809303188897" height="8" stroke="black" stroke-width="0.5" fill="rgb(194,214,154)"/><rect x="1057.804716619594" y="0" width="7.431404651594676" height="8" stroke="black" stroke-width="0.5" fill="rgb(250,202,0)"/><rect x="1065.2361212711887" y="0" width="7.431404651594448" height="8" stroke="black" stroke-width="0.5" fill="rgb(250,202,0)"/><rect x="1072.6675259227832" y="0" width="3.715702325797338" height="8" stroke="black" stroke-width="0.5" fill="rgb(250,202,0)"/><rect x="1076.3832282485805" y="0" width="1.857851162898669" height="8" stroke="black" stroke-width="0.5" fill="rgb(255,252,4)"/><rect x="1078.2410794114792" y="0" width="9.289255814493117" height="8" stroke="black" stroke-width="0.5" fill="rgb(194,214,154)"/><rect x="1087.5303352259723" y="0" width="9.289255814493117" height="8" stroke="black" stroke-width="0.5" fill="rgb(255,252,4)"/><rect x="1096.8195910404654" y="0" width="111.47106977391786" height="8" stroke="black" stroke-width="0.5" fill="rgb(225,225,225)"/><rect x="1208.2906608143833" y="0" width="7.431404651594676" height="8" stroke="black" stroke-width="0.5" fill="rgb(127,127,127)"/><rect x="1215.722065465978" y="0" width="5.573553488695779" height="8" stroke="black" stroke-width="0.5" fill="rgb(127,127,127)"/><rect x="1221.2956189546737" y="0" width="16.720660466087793" height="8" stroke="black" stroke-width="0.5" fill="rgb(127,127,127)"/><rect x="1238.0162794207615" y="0" width="7.431404651594448" height="8" stroke="black" stroke-width="0.5" fill="rgb(127,127,127)"/><rect x="1245.447684072356" y="0" width="5.573553488695779" height="8" stroke="black" stroke-width="0.5" fill="rgb(127,127,127)"/><rect x="1251.0212375610517" y="0" width="1.857851162898669" height="8" stroke="black" stroke-width="0.5" fill="rgb(127,127,127)"/><rect x="1252.8790887239504" y="0" width="1.857851162898669" height="8" stroke="black" stroke-width="0.5" fill="rgb(255,252,4)"/><rect x="1254.736939886849" y="0" width="33.44132093217536" height="8" stroke="black" stroke-width="0.5" fill="rgb(194,214,154)"/><rect x="1288.1782608190244" y="0" width="3.715702325797338" height="8" stroke="black" stroke-width="0.5" fill="rgb(255,252,4)"/><rect x="1291.8939631448218" y="0" width="11.147106977391786" height="8" stroke="black" stroke-width="0.5" fill="rgb(255,252,4)"/><rect x="1303.0410701222136" y="0" width="5.573553488695779" height="8" stroke="black" stroke-width="0.5" fill="rgb(255,252,4)"/><rect x="1308.6146236109093" y="0" width="16.720660466087793" height="8" stroke="black" stroke-width="0.5" fill="rgb(194,214,154)"/><rect x="1325.3352840769971" y="0" width="1.857851162898669" height="8" stroke="black" stroke-width="0.5" fill="rgb(255,252,4)"/><rect x="1327.1931352398958" y="0" width="5.573553488695779" height="8" stroke="black" stroke-width="0.5" fill="rgb(255,252,4)"/><rect x="1332.7666887285916" y="0" width="1.857851162898669" height="8" stroke="black" stroke-width="0.5" fill="rgb(127,127,127)"/><rect x="1334.6245398914903" y="0" width="1.857851162898669" height="8" stroke="black" stroke-width="0.5" fill="rgb(127,127,127)"/><rect x="1336.482391054389" y="0" width="78.0297488417425" height="8" stroke="black" stroke-width="0.5" fill="rgb(127,127,127)"/><rect x="1414.5121398961314" y="0" width="1.857851162898669" height="8" stroke="black" stroke-width="0.5" fill="rgb(127,127,127)"/><rect x="1416.36999105903" y="0" width="22.294213954783572" height="8" stroke="black" stroke-width="0.5" fill="rgb(127,127,127)"/><rect x="1438.6642050138137" y="0" width="3.715702325797338" height="8" stroke="black" stroke-width="0.5" fill="rgb(255,252,4)"/><rect x="1442.379907339611" y="0" width="18.578511628986234" height="8" stroke="black" stroke-width="0.5" fill="rgb(194,214,154)"/><rect x="1460.9584189685972" y="0" width="3.715702325797338" height="8" stroke="black" stroke-width="0.5" fill="rgb(255,252,4)"/><rect x="1464.6741212943946" y="0" width="14.862809303188897" height="8" stroke="black" stroke-width="0.5" fill="rgb(194,214,154)"/><rect x="1479.5369305975835" y="0" width="5.573553488696007" height="8" stroke="black" stroke-width="0.5" fill="rgb(255,252,4)"/><rect x="1485.1104840862795" y="0" width="31.58346976927669" height="8" stroke="black" stroke-width="0.5" fill="rgb(127,127,127)"/><rect x="1516.6939538555562" y="0" width="3.715702325797338" height="8" stroke="black" stroke-width="0.5" fill="rgb(127,127,127)"/><rect x="1520.4096561813535" y="0" width="3.715702325797338" height="8" stroke="black" stroke-width="0.5" fill="rgb(127,127,127)"/><rect x="1524.1253585071508" y="0" width="1.8578511628984415" height="8" stroke="black" stroke-width="0.5" fill="rgb(127,127,127)"/><rect x="1525.9832096700493" y="0" width="11.147106977391786" height="8" stroke="black" stroke-width="0.5" fill="rgb(207,11,198)"/><rect x="1537.130316647441" y="0" width="5.573553488696007" height="8" stroke="black" stroke-width="0.5" fill="rgb(127,127,127)"/><rect x="1542.703870136137" y="0" width="3.715702325797338" height="8" stroke="black" stroke-width="0.5" fill="rgb(127,127,127)"/><rect x="1546.4195724619344" y="0" width="9.289255814493117" height="8" stroke="black" stroke-width="0.5" fill="rgb(255,252,4)"/><rect x="1555.7088282764275" y="0" width="14.862809303189124" height="8" stroke="black" stroke-width="0.5" fill="rgb(194,214,154)"/><rect x="1570.5716375796167" y="0" width="5.573553488695779" height="8" stroke="black" stroke-width="0.5" fill="rgb(255,252,4)"/><rect x="1576.1451910683124" y="0" width="13.004958140290455" height="8" stroke="black" stroke-width="0.5" fill="rgb(194,214,154)"/><rect x="1589.150149208603" y="0" width="5.573553488695779" height="8" stroke="black" stroke-width="0.5" fill="rgb(255,252,4)"/><rect x="1594.7237026972987" y="0" width="1.857851162898669" height="8" stroke="black" stroke-width="0.5" fill="rgb(255,252,4)"/><rect x="1596.5815538601973" y="0" width="3.715702325797338" height="8" stroke="black" stroke-width="0.5" fill="rgb(255,252,4)"/><rect x="1600.2972561859947" y="0" width="1.857851162898669" height="8" stroke="black" stroke-width="0.5" fill="rgb(255,252,4)"/><rect x="1602.1551073488934" y="0" width="14.862809303188897" height="8" stroke="black" stroke-width="0.5" fill="rgb(194,214,154)"/><rect x="1617.0179166520822" y="0" width="1.857851162898669" height="8" stroke="black" stroke-width="0.5" fill="rgb(10,190,254)"/><rect x="1618.875767814981" y="0" width="5.573553488696007" height="8" stroke="black" stroke-width="0.5" fill="rgb(10,190,254)"/><rect x="1624.449321303677" y="0" width="1.857851162898669" height="8" stroke="black" stroke-width="0.5" fill="rgb(10,190,254)"/><rect x="1626.3071724665756" y="0" width="53.87768372406026" height="8" stroke="black" stroke-width="0.5" fill="rgb(225,225,225)"/><rect x="1680.1848561906359" y="0" width="3.715702325797338" height="8" stroke="black" stroke-width="0.5" fill="rgb(10,190,254)"/><rect x="1683.9005585164332" y="0" width="3.7157023257971105" height="8" stroke="black" stroke-width="0.5" fill="rgb(10,190,254)"/><rect x="1687.6162608422303" y="0" width="3.715702325797338" height="8" stroke="black" stroke-width="0.5" fill="rgb(10,190,254)"/><rect x="1691.3319631680276" y="0" width="16.720660466087793" height="8" stroke="black" stroke-width="0.5" fill="rgb(194,214,154)"/><rect x="1708.0526236341154" y="0" width="1.8578511628984415" height="8" stroke="black" stroke-width="0.5" fill="rgb(255,105,105)"/><rect x="1709.9104747970139" y="0" width="22.294213954783572" height="8" stroke="black" stroke-width="0.5" fill="rgb(255,0,0)"/></g></g><g><text x="188" y="272" font-size="10pt" text-anchor="end">GM12878 ChromHMM</text></g></g><line x1="600" y1="70" x2="600" y2="278" stroke="blue"/></g></g></svg>